/* XPM */
static char * glines_xpm[] = {
"48 48 17 1",
" 	c None",
".	c #593C5A",
"+	c #407071",
"@	c #3CA163",
"#	c #8E8F8D",
"$	c #5CD487",
"%	c #CC48AE",
"&	c #CD7087",
"*	c #77A588",
"=	c #9C3B81",
"-	c #7B7979",
";	c #B6BEAD",
">	c #7A71C1",
",	c #4641A8",
"'	c #99989B",
")	c #4BCE7E",
"!	c #AAACAA",
"'>>#;-#&&'#'>>#!#'''!#''''#'*)*!-#>>'#'''''#->-!",
"-,,,!-=%%&#>,,>!#!!!;#!!!!'*))$;-,,,>#!!!!!-,,,'",
",,,,'>==%%#,,,,'#!!!;#!!!!'+@@);+,,,>#!!!!!,,,,>",
"-,,,!-.==&#>,,,!#!!!;#!!!!'#+@@;-,,,>#!!!!!-,,,'",
"!'#!;#!#';';##;;!;;;;';;;;!;!*;;#!#';';;;;!!!-!;",
"-->-#+------->-#---------------#+---------#-->--",
"#,,>;-*)$;##%%&!#))$;#!!!!'#%%&;-%%%'#!!!!!#,,>!",
",,,,'+@@)$#==%%'+@@)$#!!!!'===%!>==%&#!!!!!,,,,>",
"+,,,'-+@@)#.==%!-+@@$#!!!!'>.=%!-.==&#!!!!!+,,,#",
"'+,>;-#+@!#'.=#!#-+*!#!!!!''.=-;--.=!#!!!!!#>,>;",
"####'-####-#####-####-####-####'-####-##########",
"'>,>;-!!!!#'%%&!#!!!;#!!!!'!!!!;-!;;;#!!!!!##&!;",
"+,,,!-!!!!#=%%%!#!!!;#!!!!'!!!!;-';;;#!!!!!-&&&!",
",,,,'-!!!!#===%'#!!!;#!!!!'!!!!;--';;#!!!!!-.-&!",
"#,,,;-!!!!##.=%!#!!!;#!!!!'!!!!;---'!#!!!!!#.=&!",
"''#!!-!!!!#!''!'#!!!!#!!!!#'!!!!-!''!#!!!!''!''!",
"#'''!-''''#'>>#'-->-'-#>&'##'''!-'**'#'**''-->-'",
"'!!!;-!!!!#>,,>!-,,,'#%%%&'!!!!;-@)$$#*)$$!-,,,'",
"'!!!;-!!!!#,,,,',,,,>-==%%'!!!!;++@)$#+@@$!,,,,>",
"'!!!;-!!!!#+,,,!-,,,##.==%'!!!!;-++@*#++@)!-,,,'",
"!;;;;#;;;;';--!;''-#;#!-#;';;;;;#!**;';**;!!'-';",
"----#----------#----#----------#----------#----#",
"'!!!;-!!!!##,,>!#!!!;#!!!!'!!!!;-*)$;#*)$$!#!!!;",
"'!!!;-!!!!#,,,,'#!!!;#!!!!'!!!!;+@@)$#@@)$!#!!!;",
"'!!!;-!!!!#,,,,'#!!!;#!!!!'!!!!;-+@@)#++@)!#!!!;",
"'!!!;-!!!!#',,-!#!!!;#!!!!'!!!!;-#+@!#'+@*!#!!!;",
"####'-####-#####-####-####-####'-####-##########",
"'#&!;-#>>!#!!!!!#!!!;#!!!!'!!!!;-*)$!#!!!!!#!!!;",
"-&&&;-,,,>#!!!!!#!!!;#!!!!'!!!!;-@))$#!!!!!#!!!;",
"-=&&!+,,,,#!!!!!#!!!;#!!!!'!!!!;++@)$#!!!!!#!!!;",
"#.=&;-,,,-#!!!!!#!!!;#!!!!'!!!!;-++@*#!!!!!#!!!;",
"!!'!;#!#'!#!!!!!'!!!!#!!!!'!!!!;#!'!!#!!!!!'!!!;",
"#->-!-####-####'-->-#-#########'-####-#--#'-->-'",
"-,,,!-!!!!#!!!!!-%%%'#!!!!'!!!!;-!!!!##&&&!-,,,!",
",,,,'-!!!!#!!!!!.==%&#!!!!'!!!!;-!!!!#.-&&!,,,,>",
">,,,!-!!!!#!!!!!-.==&#!!!!'!!!!;-!!!!#-.&&!>,,,#",
"!->#;-;;;;#;;;;;'#>#;#;;;;'!;;;;#;;;;#!--!!'#>#;",
"-###'-####-#####-#-##-####-#####-####-#####-####",
"'))$;-*)$;#!!!!!#&%%!#!;;;'!!!!;-!!!!#*)$$!#;;;;",
"-@)$$-@))$#!!!!!>=%%&##;;;'!!!!;-!!!!#@@)$!-';;;",
"++@);-+@@$#!!!!!>==%&#-#!;'!!!!;-!!!!#++@)!--';;",
"'++@;--+@!#!!!!!#.==!##-#!'!!!!;-!!!!#'+@*!#--';",
"####'-####-#####-###'-#########'-####-#########'",
"'>>#;-!!!!#!!!!!##&&!#!!!!'!&&';-'&&!#!>>'!#!!!;",
">,,,!-!!!!#!!!!!>=%%&#!!!!'>%%%!-=%%&#+,,,!#!!!;",
",,,,'-!!!!#!!!!!.==%&#!!!!'.==%'>.=%&#,,,,'#!!!;",
"-,,,!-!!!!#!!!!!-.=='#!!!!'-.==;-.==##>,,,!#!!!;",
"!'#!;#;;;;#;;;;!'!#!;#;;;;'!'#!;#!#';#;##!!';;;;"};
