/* XPM */
static char * box2_xpm[] = {
"42 42 5 1",
" 	c None",
".	c #565656",
"+	c #474747",
"@	c #FFFFFF",
"#	c #9B9B9B",
"..........................................",
".+++++++++++++++++++++++++++++++++++++++@.",
".+++++++++++++++++++++++++++++++++++++++@.",
".++####################################@@.",
".++####################################@@.",
".++####################################@@.",
".++####################################@@.",
".++####################################@@.",
".++####################################@@.",
".++####################################@@.",
".++####################################@@.",
".++####################################@@.",
".++####################################@@.",
".++####################################@@.",
".++####################################@@.",
".++####################################@@.",
".++####################################@@.",
".++####################################@@.",
".++####################################@@.",
".++####################################@@.",
".++####################################@@.",
".++####################################@@.",
".++####################################@@.",
".++####################################@@.",
".++####################################@@.",
".++####################################@@.",
".++####################################@@.",
".++####################################@@.",
".++####################################@@.",
".++####################################@@.",
".++####################################@@.",
".++####################################@@.",
".++####################################@@.",
".++####################################@@.",
".++####################################@@.",
".++####################################@@.",
".++####################################@@.",
".++####################################@@.",
".++####################################@@.",
".++@@@@@@@@@@@@@@@@@@@@@@@@@@@@@@@@@@@@@@.",
".@@@@@@@@@@@@@@@@@@@@@@@@@@@@@@@@@@@@@@@@.",
".........................................."};
