/* XPM */
static char * marble_xpm[] = {
"42 42 42 1",
" 	c None",
".	c #565656",
"+	c #474747",
"@	c #FFFFFF",
"#	c #F2F2F2",
"$	c #E9E9E9",
"%	c #EDEDED",
"&	c #EAEAEA",
"*	c #ECECEC",
"=	c #E5E5E5",
"-	c #E3E3E3",
";	c #EEEEEE",
">	c #EBEBEB",
",	c #F1F1F1",
"'	c #F0F0F0",
")	c #FAFAFA",
"!	c #F5F5F5",
"~	c #F9F9F9",
"{	c #EFEFEF",
"]	c #F6F6F6",
"^	c #F3F3F3",
"/	c #E7E7E7",
"(	c #E2E2E2",
"_	c #E0E0E0",
":	c #DEDEDE",
"<	c #FBFBFB",
"[	c #F4F4F4",
"}	c #E8E8E8",
"|	c #F7F7F7",
"1	c #FDFDFD",
"2	c #E4E4E4",
"3	c #E1E1E1",
"4	c #FEFEFE",
"5	c #DCDCDC",
"6	c #F8F8F8",
"7	c #DDDDDD",
"8	c #E6E6E6",
"9	c #DFDFDF",
"0	c #FCFCFC",
"a	c #DBDBDB",
"b	c #D9D9D9",
"c	c #D8D8D8",
"..........................................",
".+++++++++++++++++++++++++++++++++++++++@.",
".+++++++++++++++++++++++++++++++++++++++@.",
".++#$%&*%=-;>#*%%,')!~{%]%%^;>!@=/*;/(&@@.",
".++_,:;$*;${$#,*;>#'<[,}%>!@|%#1~<!$/$2@@.",
".++/('3#%;/;_3$;'$'}]%,}=*^,>#4@<=-<@/(@@.",
".++_%&/#%*_&:52/$}>>{;'{3$,'{64){&/%'/2@@.",
".++/&2&*;;:}=&>:78/^>[{!'>%,#!6|4[2-#!'@@.",
".++/*#;',879=8-9>82>2{#'#;(-{;*6@<{/%^'@@.",
".++8&'>%[*=2=222$/=>3&**!)>:}'*$)<]{&8}@@.",
".++/*#{,|#*$=(2/>*>,/;{,<~;/$=3};!0@6}(@@.",
".++2&#,!]^'*/-2/-8=*8%*{]['{*_9*${|@@~&@@.",
".++7-*%#!^,{*}8/(29/}{>*%[#&>{>2*';'0@!@@.",
".++:(>>{!#'';&}}/}3}>#&*^;$>#];28;*}^1|@@.",
".++(/{%{^{%>$88$-/928>2$|&/,[{%'2&$/'|]@@.",
".++($,%;{*$839(}=*2}}%/{*#]{8*!];$__*!)@@.",
".++}/8*[6{>{%-9(&aa3$%>[66,^3&&,8/8=}%,@@.",
".++/8=${&)4'-=&>=}%2_}%!=&{[$}-3>&}88$,@@.",
".++8-=$*'|#8/^'-8=}_9//>8=%**8}(>&$$82>@@.",
".++2_2>{[,;*>&$&$7:-8298*=>2>=;}}8}%>=/@@.",
".++-9-*,~,{['8=;/(>;>29$=_$2*2$3}=},[{;@@.",
".++-3-$%[#,,{&88&>,%*;2_2_88}=/(*$>^6~~@@.",
".++28//}8,~!>=8$%&*$%,=:8=-}(}$&&>;#]]]@@.",
".++2>>/=#*>^)]*->/'#%8-{9-3*3&8}2&'#,;&@@.",
".++;$/_>}#&$/8,%,,!<0!{*%,!%/;;7$}&{{&8@@.",
".++%%;/>(>&;%${>$8222=&',=2&/-===2/>*$/@@.",
".++&%#&}/&8&$/;{>&&}2(8><$8;*8$'%>*%%&/@@.",
".++>*,;&%$=//2&{%'##;&//{%>/=/$/%%;{;*}@@.",
".++^''^,&8$*>}28}//8/}$$-;{/=&$228$*%%&@@.",
".++6^;[#%/$/}$-8882-28=-8;#^!#{,&*%%%*}@@.",
".++66{^;[>>3($-8}*%>&}=3/$${|#%#[!#;%*&@@.",
".++<@]]%#%'8=>:52$>}8}>>&>8}^[;{{{%$&;'@@.",
".++$,~<|;#}=,=>ab$%/8&%'*6!~1&[}8${,*=2@@.",
".++233{@],1@[@/@~%=>#>}{!<((@^'$;&$%'%$@@.",
".++''=_(^1@,*%;^{8a7>,,#]1$-6*',[;&*,,;@@.",
".++9_8}8%$19${}>%{&/*,!~^~1|'-[^#,,'{;{@@.",
".++'$2_7*}2|;>c/'*%||&;@^#)|^&^*{',,','@@.",
".++%>_5_*~2^%b8-88/%,%*^*''$!%*{{%*;[|^@@.",
".++2&=__8$@5&[[[*^;/*^{/%;,}#%;[''{{#!^@@.",
".++@@@@@@@@@@@@@@@@@@@@@@@@@@@@@@@@@@@@@@.",
".@@@@@@@@@@@@@@@@@@@@@@@@@@@@@@@@@@@@@@@@.",
".........................................."};
