/* XPM */
static char * woody_xpm[] = {
"42 42 8 1",
" 	c None",
".	c #565656",
"+	c #474747",
"@	c #FFFFFF",
"#	c #EBAA41",
"$	c #FFBA59",
"%	c #FFC365",
"&	c #FFB241",
"..........................................",
".+++++++++++++++++++++++++++++++++++++++@.",
".+++++++++++++++++++++++++++++++++++++++@.",
".++#$$$%#&&$%%#&&&$#&&$$$%#&&$$&&$%#&&$@@.",
".++#&$$%#&&$%%#&&&$#&&&$$$#&$$&$&$%#&&$@@.",
".++#$$$%#$$$%%#&&&$#&&&$$%#&&&$&&$#&&&$@@.",
".++#&$$%#&&$%%#&&$$#&&$$$$#&&$&&$$#&&&$@@.",
".++#&$%%#&$$%%#&&$$#&&&$$%#&&$$&$$#&$$&@@.",
".++#&$%%#$$$$##&&$$#&&&$$%#&&$&&$$#&&&&@@.",
".++#&$%%#&$$%#&&$$%#&&&$$%#&&&&&$$#&&$$@@.",
".++#&$%##&$$%#&&$$#&&&&$$%#&&$$$$$#&&$$@@.",
".++#&$%#&&$$%#&$$$#&&&&$$%#&&$$$$$#&$$$@@.",
".++#&$%#&&$$%#&&$$$&&&$$$%#&&&$&$$#&$$$@@.",
".++#&$%#&&&$%#&&&$#&&$&$$%#&&&$$$%#&&&$@@.",
".++#&$%#&&&$%#&&$$#&&$&$$%#&&$&$$%#&&&$@@.",
".++#&$%#&&&$%#&$&%#&$$&$$%#&&$$$$%#&&&$@@.",
".++#&$%#&&&$%#&&&%%&$$$$$%#&&$$$$%#&&$$@@.",
".++#&$%#&&&$%#&&&%%$$$&$$%#&$$&$$%#&&$$@@.",
".++#&$%#&&&$%#&&&%#&$$&$$%#&&$$$$%#&&$$@@.",
".++#&$%#&&&$%#&&&$#&&$&$$%#&&$&$$%#&&$$@@.",
".++$&$%#&&&$%#&&%$#$$$$$$%#&&$$$$%#&$$$@@.",
".++$&$%#&&&$##&&%%#&$$&$$%#&&&&$%%#&$&$@@.",
".++#$$%#&&&$#&&&%$#&&$$$%%#&&$$$%%#&&&$@@.",
".++$&$%#&&&$#&&&%$#&$&$$%%#&&$&$%%#&&$$@@.",
".++#$$%#&&&$#&%$%$#&&&$$%%#&&$$$%%#&&$$@@.",
".++#&$%#&&&$#&&%$%#&&&$$%%#&&&$$%%#&&&$@@.",
".++#&$%#&&&$#&&$%%#&&&$$%%#&&&$$%%#&$&$@@.",
".++#&$%#&&$$#&&&%%#&&&$$%%#&&&$$%%#&&$$@@.",
".++#&$%$&$$$#&&%%#&&&&$$%#&&&&$$%%#&&$$@@.",
".++&&$%#$&$$#&&&%#&$$$$$%#&&&&$$%%#&&$%@@.",
".++&&$%#$$$%#&%&%#&&$$$$#&&&&&$$%#$&&$%@@.",
".++&&$%#$$$%#&&&%%&&$$$$#&&$$$$%%#&$$$%@@.",
".++&&$%#$&$%#&&&$#&&&$$%#%&&$&$%%#&&&$%@@.",
".++&&$%#$$$%#&&&$#&&$$%%#&&&$$$%%#&&$$%@@.",
".++&&$%#&&$%#&&&$#&&&&$$#&&&$&$%%#&&$$%@@.",
".++&&$%#$&$%#&&&$#&&$$$$#&&$$&$%%#&$$$%@@.",
".++&&$%#$$$%#&&$$#&&&$$$#&&&$&$%%#&$&$%@@.",
".++&&$%#$&$%#&&$$#&&&$$$#&&&$$$%%#&$$$%@@.",
".++#&$%$$&$%#&&$%#&&&&$%#&&&$&$%##&&&$%@@.",
".++@@@@@@@@@@@@@@@@@@@@@@@@@@@@@@@@@@@@@@.",
".@@@@@@@@@@@@@@@@@@@@@@@@@@@@@@@@@@@@@@@@.",
".........................................."};
