<?xml version="1.0" encoding="utf-8"?>
<!DOCTYPE svg PUBLIC "-//W3C//DTD SVG 1.1//EN" "http://www.w3.org/Graphics/SVG/1.1/DTD/svg11.dtd">
<svg xmlns="http://www.w3.org/2000/svg" version="1.1" width="400" height="700">
  <g stroke="#000000" stroke-width="5" stroke-linejoin="round" stroke-linecap="round">
    <path fill="#E100FF" d="M134.8,319.5c-8.4,0-15.3,6.8-15.3,15.3v30.5c0,8.4,6.8,15.3,15.3,15.3H165c8.4,0,15.5-6.8,15.5-15.3v-30.5c0-8.4-6.8-15.3-15.3-15.3H134.8z"/>
    <path fill="#E100FF" d="M237.5,312.5c-6.9,0-12.5,8.4-12.5,18.8v37.5c0,10.4,5.6,18.8,12.5,18.8h25c6.9,0,12.5-8.4,12.5-18.8v-37.3c0-10.4-5.6-19-12.5-19H237.5z"/>
    <path fill="#E100FF" d="M334.8,319.5c-8.4,0-15.3,6.8-15.3,15.3v30.5c0,8.4,6.8,15.3,15.3,15.3H365c8.4,0,15.5-6.8,15.5-15.3v-30.5c0-8.4-6.8-15.3-15.3-15.3H334.8z"/>
    <path fill="#E100FF" d="M87.5,362.5v-25c0-6.9-8.4-12.5-18.8-12.5H31.3c-10.4,0-18.8,5.6-18.8,12.5v25c0,6.9,8.4,12.5,18.8,12.5h37.3C78.9,375,87.5,369.4,87.5,362.5z"/>
    <polygon fill="#E3002C" points="113.4,165.2 165.2,186.6 186.6,134.8 134.8,113.4"/>
    <polygon fill="#E3002C" points="289.6,150 250,110.4 210.4,150 250,189.6"/>
    <polygon fill="#E3002C" points="386.6,165.2 365.2,113.4 313.4,134.8 334.8,186.6"/>
    <polygon fill="#00D300" points="130,615 130,685 170,685 170,615"/>
    <polygon fill="#00D300" points="330,615 330,685 370,685 370,615"/>
    <polygon fill="#E3002C" points="22,122 22,178 78,178 78,122"/>
    <polygon fill="#00D300" points="16,681 56,681 84,619 44,619"/>
    <polygon fill="#00D300" points="216,619 244,681 284,681 256,619"/>
    <polygon fill="#F4C656" points="167.9,406.9 141.2,428.8 106.9,432.1 128.8,458.8 132.1,493.1 158.8,471.2 193.1,467.9 171.2,441.2"/>
    <polygon fill="#F4C656" points="250,403.3 233.7,433.7 203.3,450 233.7,466.3 250,496.7 266.3,466.3 296.7,450 266.3,433.7"/>
    <polygon fill="#F4C656" points="367.9,493.1 371.2,458.8 393.1,432.1 358.8,428.8 332.1,406.9 328.8,441.2 306.9,467.9 341.2,471.2"/>
    <polygon fill="#F4C656" points="50,427 17,417 27,450 17,483 50,473 83,483 73,450 83,417"/>
    <polygon fill="#007F7F" points="178.4,520.6 150.7,509.2 141.9,530.4 120.6,521.6 109.2,549.3 130.4,558.1 121.6,579.4 149.3,590.8 158.1,569.6 179.4,578.4 190.8,550.7 169.6,541.9"/>
    <polygon fill="#007F7F" points="266.3,512.5 250,528.8 233.7,512.5 212.5,533.7 228.8,550 212.5,566.3 233.7,587.5 250,571.2 266.3,587.5 287.5,566.3 271.2,550 287.5,533.7"/>
    <polygon fill="#007F7F" points="379.4,521.6 358.1,530.4 349.3,509.2 321.6,520.6 330.4,541.9 309.2,550.7 320.6,578.4 341.9,569.6 350.7,590.8 378.4,579.4 369.6,558.1 390.8,549.3"/>
    <polygon fill="#007F7F" points="65,512 35,512 35,535 12,535 12,565 35,565 35,588 65,588 65,565 88,565 88,535 65,535"/>
    <polygon fill="#EEFF00" points="166,238.1 162.2,211.9 143.7,230.9 117.5,226.4 129.9,249.9 117.5,273.4 143.7,268.9 162.2,287.9 166,261.6 189.9,249.9"/>
    <polygon fill="#EEFF00" points="268.9,243.7 273.4,217.5 249.9,229.9 226.4,217.5 230.9,243.7 211.9,262.2 238.1,266 249.9,289.9 261.6,266 287.9,262.2"/>
    <polygon fill="#EEFF00" points="337.6,287.9 356.1,268.8 382.3,273.3 369.9,249.8 382.3,226.3 356.1,230.8 337.6,211.8 333.8,238.1 309.9,249.8 333.8,261.6"/>
    <polygon fill="#EEFF00" points="50,209.8 38.2,233.6 12,237.5 31,256 26.5,282.2 50,269.8 73.5,282.2 69,256 88,237.5 61.8,233.6"/>
    <polygon fill="#79C8FF" points="183.1,74 183.1,25.8 137.3,10.9 109,49.9 137.3,88.9"/>
    <polygon fill="#79C8FF" points="288.9,62.6 274,16.8 225.9,16.8 211,62.6 250,90.9"/>
    <polygon fill="#79C8FF" points="390.9,49.9 362.6,11 316.8,25.9 316.8,74 362.6,88.9"/>
    <polygon fill="#79C8FF" points="11,37.2 25.9,83.1 74.1,83.1 89,37.2 50,8.9"/>
  </g>
</svg>
